<svg width="69" height="18" viewBox="0 0 69 18" fill="none" xmlns="http://www.w3.org/2000/svg">
<path d="M2.35715 5.71371C2.04762 6.02324 1.8021 6.3907 1.63459 6.79511C1.46707 7.19953 1.38086 7.63298 1.38086 8.07072C1.38087 8.50846 1.46709 8.94191 1.63461 9.34633C1.80213 9.75075 2.04767 10.1182 2.3572 10.4277L4.71419 8.07075L2.35715 5.71371Z" fill="#166B7C"/>
<path d="M8.24973 13.9637C8.90059 13.3128 8.90059 12.2575 8.24973 11.6067L4.71414 8.07108L2.35715 10.4281L5.89273 13.9637C6.5436 14.6145 7.59886 14.6145 8.24973 13.9637V13.9637Z" fill="#166B7C"/>
<path d="M8.24957 2.17852C7.59869 1.52764 6.5434 1.52764 5.89252 2.17852L2.35706 5.71399L4.7141 8.07103L8.24956 4.53556C8.90044 3.88468 8.90044 2.8294 8.24957 2.17852V2.17852Z" fill="#2594A6"/>
<path d="M65.7849 10.4284C66.0945 10.1189 66.34 9.75139 66.5075 9.34698C66.675 8.94256 66.7612 8.50911 66.7612 8.07137C66.7612 7.63363 66.675 7.20018 66.5075 6.79576C66.34 6.39134 66.0944 6.02387 65.7849 5.71434L63.4279 8.07134L65.7849 10.4284Z" fill="#166B7C"/>
<path d="M59.8924 2.17844C59.2415 2.8293 59.2415 3.88456 59.8924 4.53543L63.4279 8.07101L65.7849 5.71402L62.2494 2.17844C61.5985 1.52757 60.5432 1.52757 59.8924 2.17844V2.17844Z" fill="#166B7C"/>
<path d="M59.8925 13.9636C60.5434 14.6144 61.5987 14.6144 62.2496 13.9636L65.785 10.4281L63.428 8.07106L59.8925 11.6065C59.2416 12.2574 59.2416 13.3127 59.8925 13.9636V13.9636Z" fill="#2594A6"/>
<path d="M13.3417 8.44C13.6537 8.44 13.9017 8.312 14.0857 8.056C14.2697 7.792 14.3617 7.4 14.3617 6.88C14.3617 5.84 14.0217 5.32 13.3417 5.32C13.0857 5.32 12.8497 5.416 12.6337 5.608C12.4257 5.8 12.3217 6.004 12.3217 6.22V7.54C12.3217 7.756 12.4257 7.96 12.6337 8.152C12.8497 8.344 13.0857 8.44 13.3417 8.44ZM14.1817 3.64C14.9177 3.64 15.5017 3.92 15.9337 4.48C16.3657 5.032 16.5817 5.832 16.5817 6.88C16.5817 7.904 16.3537 8.7 15.8977 9.268C15.4497 9.836 14.8777 10.12 14.1817 10.12C13.5497 10.12 12.9617 9.88 12.4177 9.4C12.4097 9.392 12.4017 9.388 12.3937 9.388C12.3857 9.388 12.3817 9.392 12.3817 9.4V11.956C12.3817 12.14 12.3137 12.3 12.1777 12.436C12.0417 12.572 11.8817 12.64 11.6977 12.64H10.7857C10.6017 12.64 10.4417 12.572 10.3057 12.436C10.1697 12.3 10.1017 12.14 10.1017 11.956V4.444C10.1017 4.26 10.1697 4.1 10.3057 3.964C10.4417 3.828 10.6017 3.76 10.7857 3.76H11.6017C11.7937 3.76 11.9577 3.828 12.0937 3.964C12.2297 4.092 12.3017 4.252 12.3097 4.444V4.54C12.3097 4.548 12.3137 4.552 12.3217 4.552C12.3297 4.552 12.3377 4.548 12.3457 4.54C12.8417 3.94 13.4537 3.64 14.1817 3.64ZM19.9358 8.188C20.0878 8.436 20.3318 8.56 20.6678 8.56C21.0038 8.56 21.2478 8.436 21.3998 8.188C21.5518 7.932 21.6278 7.496 21.6278 6.88C21.6278 6.264 21.5518 5.832 21.3998 5.584C21.2478 5.328 21.0038 5.2 20.6678 5.2C20.3318 5.2 20.0878 5.328 19.9358 5.584C19.7838 5.832 19.7078 6.264 19.7078 6.88C19.7078 7.496 19.7838 7.932 19.9358 8.188ZM18.2798 4.504C18.8478 3.928 19.6438 3.64 20.6678 3.64C21.6918 3.64 22.4878 3.928 23.0558 4.504C23.6238 5.072 23.9078 5.864 23.9078 6.88C23.9078 7.896 23.6238 8.692 23.0558 9.268C22.4878 9.836 21.6918 10.12 20.6678 10.12C19.6438 10.12 18.8478 9.836 18.2798 9.268C17.7118 8.692 17.4278 7.896 17.4278 6.88C17.4278 5.864 17.7118 5.072 18.2798 4.504ZM29.3522 3.784C29.5362 3.76 29.6962 3.816 29.8322 3.952C29.9682 4.088 30.0362 4.252 30.0362 4.444V4.756C30.0362 4.94 29.9722 5.1 29.8442 5.236C29.7162 5.364 29.5562 5.44 29.3642 5.464C28.7482 5.544 28.2562 5.776 27.8882 6.16C27.5202 6.536 27.3362 6.996 27.3362 7.54V9.316C27.3362 9.5 27.2682 9.66 27.1322 9.796C26.9962 9.932 26.8362 10 26.6522 10H25.6802C25.4962 10 25.3362 9.932 25.2002 9.796C25.0642 9.66 24.9962 9.5 24.9962 9.316V4.444C24.9962 4.26 25.0642 4.1 25.2002 3.964C25.3362 3.828 25.4962 3.76 25.6802 3.76H26.5922C26.7762 3.76 26.9362 3.828 27.0722 3.964C27.2082 4.1 27.2762 4.26 27.2762 4.444V4.948C27.2762 4.956 27.2802 4.96 27.2882 4.96C27.2962 4.96 27.3042 4.956 27.3122 4.948C27.8162 4.284 28.4962 3.896 29.3522 3.784ZM35.9326 1.18C36.1246 1.204 36.2806 1.296 36.4006 1.456C36.5286 1.608 36.5926 1.784 36.5926 1.984V2.236C36.5926 2.404 36.5246 2.54 36.3886 2.644C36.2606 2.748 36.1126 2.788 35.9446 2.764C35.8006 2.748 35.6966 2.74 35.6326 2.74C35.2566 2.74 35.0126 2.804 34.9006 2.932C34.7886 3.052 34.7326 3.328 34.7326 3.76V3.892C34.7326 3.964 34.7686 4 34.8406 4H35.7886C35.9726 4 36.1326 4.068 36.2686 4.204C36.4046 4.34 36.4726 4.5 36.4726 4.684V4.876C36.4726 5.06 36.4046 5.22 36.2686 5.356C36.1326 5.492 35.9726 5.56 35.7886 5.56H34.8406C34.7686 5.56 34.7326 5.596 34.7326 5.668V9.316C34.7326 9.5 34.6646 9.66 34.5286 9.796C34.3926 9.932 34.2326 10 34.0486 10H33.0766C32.8926 10 32.7326 9.932 32.5966 9.796C32.4606 9.66 32.3926 9.5 32.3926 9.316V5.668C32.3926 5.596 32.3566 5.56 32.2846 5.56H31.7566C31.5726 5.56 31.4126 5.492 31.2766 5.356C31.1406 5.22 31.0726 5.06 31.0726 4.876V4.684C31.0726 4.5 31.1406 4.34 31.2766 4.204C31.4126 4.068 31.5726 4 31.7566 4H32.2846C32.3566 4 32.3926 3.964 32.3926 3.892V3.76C32.3926 2.848 32.6046 2.18 33.0286 1.756C33.4526 1.332 34.1206 1.12 35.0326 1.12C35.3126 1.12 35.6126 1.14 35.9326 1.18ZM39.6467 8.188C39.7987 8.436 40.0427 8.56 40.3787 8.56C40.7147 8.56 40.9587 8.436 41.1107 8.188C41.2627 7.932 41.3387 7.496 41.3387 6.88C41.3387 6.264 41.2627 5.832 41.1107 5.584C40.9587 5.328 40.7147 5.2 40.3787 5.2C40.0427 5.2 39.7987 5.328 39.6467 5.584C39.4947 5.832 39.4187 6.264 39.4187 6.88C39.4187 7.496 39.4947 7.932 39.6467 8.188ZM37.9907 4.504C38.5587 3.928 39.3547 3.64 40.3787 3.64C41.4027 3.64 42.1987 3.928 42.7667 4.504C43.3347 5.072 43.6187 5.864 43.6187 6.88C43.6187 7.896 43.3347 8.692 42.7667 9.268C42.1987 9.836 41.4027 10.12 40.3787 10.12C39.3547 10.12 38.5587 9.836 37.9907 9.268C37.4227 8.692 37.1387 7.896 37.1387 6.88C37.1387 5.864 37.4227 5.072 37.9907 4.504ZM46.6632 0.999999C46.8472 0.999999 47.0072 1.068 47.1432 1.204C47.2792 1.34 47.3472 1.5 47.3472 1.684V9.316C47.3472 9.5 47.2792 9.66 47.1432 9.796C47.0072 9.932 46.8472 10 46.6632 10H45.6312C45.4472 10 45.2872 9.932 45.1512 9.796C45.0152 9.66 44.9472 9.5 44.9472 9.316V1.684C44.9472 1.5 45.0152 1.34 45.1512 1.204C45.2872 1.068 45.4472 0.999999 45.6312 0.999999H46.6632ZM50.8233 3.76C51.0073 3.76 51.1673 3.828 51.3033 3.964C51.4393 4.1 51.5073 4.26 51.5073 4.444V9.316C51.5073 9.5 51.4393 9.66 51.3033 9.796C51.1673 9.932 51.0073 10 50.8233 10H49.7913C49.6073 10 49.4473 9.932 49.3113 9.796C49.1753 9.66 49.1073 9.5 49.1073 9.316V4.444C49.1073 4.26 49.1753 4.1 49.3113 3.964C49.4473 3.828 49.6073 3.76 49.7913 3.76H50.8233ZM50.8233 0.999999C51.0073 0.999999 51.1673 1.068 51.3033 1.204C51.4393 1.34 51.5073 1.5 51.5073 1.684V1.996C51.5073 2.18 51.4393 2.34 51.3033 2.476C51.1673 2.612 51.0073 2.68 50.8233 2.68H49.7913C49.6073 2.68 49.4473 2.612 49.3113 2.476C49.1753 2.34 49.1073 2.18 49.1073 1.996V1.684C49.1073 1.5 49.1753 1.34 49.3113 1.204C49.4473 1.068 49.6073 0.999999 49.7913 0.999999H50.8233ZM55.3499 8.188C55.5019 8.436 55.7459 8.56 56.0819 8.56C56.4179 8.56 56.6619 8.436 56.8139 8.188C56.9659 7.932 57.0419 7.496 57.0419 6.88C57.0419 6.264 56.9659 5.832 56.8139 5.584C56.6619 5.328 56.4179 5.2 56.0819 5.2C55.7459 5.2 55.5019 5.328 55.3499 5.584C55.1979 5.832 55.1219 6.264 55.1219 6.88C55.1219 7.496 55.1979 7.932 55.3499 8.188ZM53.6939 4.504C54.2619 3.928 55.0579 3.64 56.0819 3.64C57.1059 3.64 57.9019 3.928 58.4699 4.504C59.0379 5.072 59.3219 5.864 59.3219 6.88C59.3219 7.896 59.0379 8.692 58.4699 9.268C57.9019 9.836 57.1059 10.12 56.0819 10.12C55.0579 10.12 54.2619 9.836 53.6939 9.268C53.1259 8.692 52.8419 7.896 52.8419 6.88C52.8419 5.864 53.1259 5.072 53.6939 4.504Z" fill="#EF652A"/>
<path d="M39.3723 13.22L39.5023 13.215H39.5273C39.5507 13.215 39.5623 13.22 39.5623 13.23C39.5623 13.2633 39.5323 13.2817 39.4723 13.285C38.9923 13.3183 38.709 13.3417 38.6223 13.355C38.2223 13.855 37.834 14.245 37.4573 14.525C37.5473 14.5683 37.6957 14.6083 37.9023 14.645C37.9323 14.6483 37.9473 14.6583 37.9473 14.675C37.9473 14.6917 37.9307 14.7 37.8973 14.7C37.764 14.7 37.6007 14.655 37.4073 14.565C37.0807 14.7983 36.7973 14.915 36.5573 14.915C36.404 14.915 36.3273 14.8667 36.3273 14.77C36.3273 14.7 36.3473 14.65 36.3873 14.62C36.3773 14.65 36.3723 14.6817 36.3723 14.715C36.3723 14.805 36.4357 14.85 36.5623 14.85C36.7823 14.85 37.0357 14.7417 37.3223 14.525C37.289 14.5083 37.2373 14.4767 37.1673 14.43C36.9407 14.5933 36.7607 14.675 36.6273 14.675C36.604 14.675 36.5923 14.6683 36.5923 14.655C36.5923 14.6317 36.609 14.6183 36.6423 14.615C36.809 14.5583 36.964 14.4783 37.1073 14.375C37.0073 14.2783 36.9573 14.1783 36.9573 14.075C36.9573 13.885 37.109 13.7133 37.4123 13.56C37.6123 13.4567 37.8473 13.3783 38.1173 13.325C38.5807 12.715 38.9357 12.0883 39.1823 11.445C39.1957 11.415 39.2523 11.235 39.3523 10.905C39.3557 10.8817 39.369 10.87 39.3923 10.87C39.3957 10.8733 39.3973 10.8767 39.3973 10.88C39.3973 11.1467 39.2473 11.565 38.9473 12.135C38.7273 12.5583 38.489 12.9483 38.2323 13.305L38.4723 13.28C38.6923 12.98 38.934 12.5817 39.1973 12.085C39.464 11.5883 39.5973 11.2167 39.5973 10.97C39.5973 10.8167 39.529 10.73 39.3923 10.71C39.3623 10.7033 39.3473 10.6917 39.3473 10.675C39.3473 10.6583 39.3657 10.65 39.4023 10.65C39.5223 10.65 39.6173 10.6883 39.6873 10.765C39.754 10.8483 39.7873 10.95 39.7873 11.07C39.7873 11.34 39.6557 11.7183 39.3923 12.205C39.2057 12.5417 38.974 12.8933 38.6973 13.26C38.9907 13.2333 39.2157 13.22 39.3723 13.22ZM40.8373 14.13C40.8373 14.1833 40.8007 14.2583 40.7273 14.355C40.654 14.455 40.5857 14.5217 40.5223 14.555C40.459 14.5917 40.3807 14.61 40.2873 14.61C40.194 14.61 40.084 14.5583 39.9573 14.455C39.8307 14.355 39.7357 14.2367 39.6723 14.1C39.6123 13.9667 39.5823 13.775 39.5823 13.525C39.5823 13.2717 39.6073 12.9333 39.6573 12.51C39.7073 12.0833 39.7357 11.82 39.7423 11.72C39.749 11.6167 39.7623 11.565 39.7823 11.565C39.8123 11.565 39.829 11.6 39.8323 11.67V12.465C39.8323 13.345 39.904 13.945 40.0473 14.265C40.134 14.4617 40.234 14.56 40.3473 14.56C40.4973 14.56 40.6607 14.4167 40.8373 14.13ZM38.3873 13.39C38.3107 13.4067 38.2207 13.43 38.1173 13.46C37.8273 13.8333 37.5357 14.1367 37.2423 14.37C37.2723 14.41 37.3173 14.4483 37.3773 14.485C37.684 14.2417 38.0207 13.8767 38.3873 13.39ZM37.9873 13.5C37.4473 13.7133 37.1773 13.94 37.1773 14.18C37.1773 14.22 37.1857 14.2617 37.2023 14.305C37.4557 14.1017 37.7173 13.8333 37.9873 13.5ZM41.8225 12.85C41.8225 12.9467 41.7925 13.0367 41.7325 13.12C41.6758 13.2033 41.6208 13.245 41.5675 13.245C41.5575 13.245 41.5525 13.2383 41.5525 13.225C41.5725 13.175 41.5958 13.1217 41.6225 13.065C41.6491 13.005 41.6625 12.9383 41.6625 12.865C41.6625 12.7883 41.6341 12.75 41.5775 12.75C41.5008 12.75 41.3791 12.8433 41.2125 13.03C41.0491 13.2133 40.9341 13.3633 40.8675 13.48L40.6525 14.055C40.6458 14.0617 40.6325 14.065 40.6125 14.065C40.5958 14.065 40.5691 14.0533 40.5325 14.03C40.4991 14.0067 40.4825 13.9867 40.4825 13.97C40.4891 13.9567 40.4975 13.935 40.5075 13.905C40.5208 13.875 40.5325 13.8517 40.5425 13.835C40.6725 13.5583 40.7608 13.335 40.8075 13.165C40.8575 12.9917 40.8825 12.8217 40.8825 12.655C40.8691 12.7083 40.8091 12.8267 40.7025 13.01C40.5425 13.2867 40.4525 13.425 40.4325 13.425C40.4125 13.425 40.4025 13.42 40.4025 13.41C40.4025 13.4033 40.4708 13.2883 40.6075 13.065C40.7475 12.8417 40.8425 12.6333 40.8925 12.44C40.9125 12.3533 40.9458 12.31 40.9925 12.31C41.0458 12.31 41.0725 12.3767 41.0725 12.51C41.0725 12.75 40.9958 13.045 40.8425 13.395C41.0225 13.1717 41.1475 13.0217 41.2175 12.945C41.4075 12.7417 41.5558 12.64 41.6625 12.64C41.7691 12.64 41.8225 12.71 41.8225 12.85ZM42.7489 13.315C42.7556 13.315 42.7589 13.3183 42.7589 13.325C42.7589 13.3817 42.6673 13.5067 42.4839 13.7C42.3373 13.8467 42.2256 13.92 42.1489 13.92C41.9789 13.92 41.8939 13.835 41.8939 13.665C41.8939 13.5383 41.9273 13.3783 41.9939 13.185L41.9039 13.325C41.8606 13.3983 41.8306 13.435 41.8139 13.435C41.8073 13.435 41.8039 13.4267 41.8039 13.41C41.8039 13.39 41.8289 13.3467 41.8789 13.28C41.9289 13.2133 42.0023 13.0767 42.0989 12.87C42.1256 12.8 42.1623 12.7217 42.2089 12.635C42.2256 12.605 42.2639 12.59 42.3239 12.59C42.3873 12.59 42.4189 12.6067 42.4189 12.64C42.4189 12.6733 42.4023 12.7233 42.3689 12.79C42.3356 12.8567 42.3073 12.895 42.2839 12.905C42.1106 13.2517 42.0239 13.5067 42.0239 13.67C42.0239 13.78 42.0606 13.835 42.1339 13.835C42.2539 13.835 42.3856 13.7483 42.5289 13.575C42.5889 13.505 42.6256 13.4633 42.6389 13.45C42.6523 13.4333 42.6656 13.4167 42.6789 13.4C42.6923 13.3833 42.7039 13.37 42.7139 13.36C42.7306 13.3433 42.7423 13.3283 42.7489 13.315ZM42.5939 11.955C42.6673 11.9217 42.7123 11.905 42.7289 11.905C42.7456 11.905 42.7539 11.91 42.7539 11.92C42.7539 11.9267 42.7156 11.9733 42.6389 12.06L42.5639 12.215C42.5339 12.2817 42.4956 12.315 42.4489 12.315C42.3823 12.315 42.3489 12.28 42.3489 12.21C42.3489 12.1767 42.3706 12.135 42.4139 12.085C42.4606 12.0317 42.5206 11.9883 42.5939 11.955ZM44.2131 13.32C44.2164 13.32 44.2181 13.325 44.2181 13.335C44.2181 13.345 44.2048 13.3733 44.1781 13.42C44.0748 13.5867 43.9248 13.7417 43.7281 13.885C43.5314 14.025 43.3464 14.095 43.1731 14.095C42.9364 14.095 42.8181 13.9417 42.8181 13.635C42.8181 13.5317 42.8298 13.4217 42.8531 13.305C42.8231 13.2783 42.7964 13.2417 42.7731 13.195C42.7764 13.1983 42.7848 13.2033 42.7981 13.21C42.8114 13.2133 42.8231 13.2183 42.8331 13.225C42.8464 13.2283 42.8598 13.2317 42.8731 13.235C42.9064 13.0717 43.0081 12.9033 43.1781 12.73C43.3481 12.5567 43.5131 12.47 43.6731 12.47C43.7098 12.47 43.7281 12.475 43.7281 12.485C43.7281 12.4917 43.7048 12.5083 43.6581 12.535C43.5348 12.6017 43.4198 12.705 43.3131 12.845C43.1998 12.985 43.1181 13.125 43.0681 13.265L43.0781 13.275C43.2381 13.275 43.4048 13.1983 43.5781 13.045C43.7514 12.8917 43.8381 12.735 43.8381 12.575C43.8381 12.5283 43.8248 12.485 43.7981 12.445C43.7748 12.4017 43.7348 12.38 43.6781 12.38C43.6214 12.38 43.5498 12.4067 43.4631 12.46C43.3798 12.51 43.3331 12.535 43.3231 12.535C43.3164 12.535 43.3131 12.5333 43.3131 12.53C43.3131 12.49 43.3664 12.4483 43.4731 12.405C43.5831 12.3617 43.6714 12.34 43.7381 12.34C43.8081 12.34 43.8681 12.3617 43.9181 12.405C43.9681 12.4483 43.9931 12.5083 43.9931 12.585C43.9931 12.7617 43.8831 12.9283 43.6631 13.085C43.4464 13.2417 43.2414 13.3283 43.0481 13.345C43.0214 13.425 43.0081 13.5017 43.0081 13.575C43.0081 13.8517 43.1081 13.99 43.3081 13.99C43.4614 13.99 43.6148 13.93 43.7681 13.81C43.9214 13.6867 44.0448 13.5467 44.1381 13.39C44.1681 13.3433 44.1931 13.32 44.2131 13.32ZM45.4577 11.47C45.431 11.4833 45.401 11.5083 45.3677 11.545C44.7544 12.6883 44.4477 13.4233 44.4477 13.75C44.4477 13.86 44.4844 13.915 44.5577 13.915C44.651 13.915 44.781 13.8417 44.9477 13.695C44.9744 13.6717 44.9927 13.655 45.0027 13.645C45.016 13.635 45.021 13.63 45.0177 13.63C45.031 13.63 45.0377 13.635 45.0377 13.645C45.0377 13.655 45.031 13.67 45.0177 13.69C44.871 13.8967 44.721 14 44.5677 14C44.401 14 44.3177 13.9117 44.3177 13.735C44.3177 13.5583 44.4027 13.24 44.5727 12.78C44.4894 12.8933 44.431 12.95 44.3977 12.95C44.3877 12.95 44.3827 12.9467 44.3827 12.94C44.3827 12.9333 44.426 12.8733 44.5127 12.76C44.6027 12.6433 44.651 12.5783 44.6577 12.565C44.761 12.265 44.916 11.905 45.1227 11.485C45.3294 11.065 45.471 10.785 45.5477 10.645C45.5744 10.5883 45.6294 10.56 45.7127 10.56C45.7994 10.56 45.8427 10.5717 45.8427 10.595C45.8427 10.6183 45.7144 10.91 45.4577 11.47ZM48.0296 13.22L48.1596 13.215H48.1846C48.2079 13.215 48.2196 13.22 48.2196 13.23C48.2196 13.2633 48.1896 13.2817 48.1296 13.285C47.6496 13.3183 47.3662 13.3417 47.2796 13.355C46.8796 13.855 46.4912 14.245 46.1146 14.525C46.2046 14.5683 46.3529 14.6083 46.5596 14.645C46.5896 14.6483 46.6046 14.6583 46.6046 14.675C46.6046 14.6917 46.5879 14.7 46.5546 14.7C46.4212 14.7 46.2579 14.655 46.0646 14.565C45.7379 14.7983 45.4546 14.915 45.2146 14.915C45.0612 14.915 44.9846 14.8667 44.9846 14.77C44.9846 14.7 45.0046 14.65 45.0446 14.62C45.0346 14.65 45.0296 14.6817 45.0296 14.715C45.0296 14.805 45.0929 14.85 45.2196 14.85C45.4396 14.85 45.6929 14.7417 45.9796 14.525C45.9462 14.5083 45.8946 14.4767 45.8246 14.43C45.5979 14.5933 45.4179 14.675 45.2846 14.675C45.2612 14.675 45.2496 14.6683 45.2496 14.655C45.2496 14.6317 45.2662 14.6183 45.2996 14.615C45.4662 14.5583 45.6212 14.4783 45.7646 14.375C45.6646 14.2783 45.6146 14.1783 45.6146 14.075C45.6146 13.885 45.7662 13.7133 46.0696 13.56C46.2696 13.4567 46.5046 13.3783 46.7746 13.325C47.2379 12.715 47.5929 12.0883 47.8396 11.445C47.8529 11.415 47.9096 11.235 48.0096 10.905C48.0129 10.8817 48.0262 10.87 48.0496 10.87C48.0529 10.8733 48.0546 10.8767 48.0546 10.88C48.0546 11.1467 47.9046 11.565 47.6046 12.135C47.3846 12.5583 47.1462 12.9483 46.8896 13.305L47.1296 13.28C47.3496 12.98 47.5912 12.5817 47.8546 12.085C48.1212 11.5883 48.2546 11.2167 48.2546 10.97C48.2546 10.8167 48.1862 10.73 48.0496 10.71C48.0196 10.7033 48.0046 10.6917 48.0046 10.675C48.0046 10.6583 48.0229 10.65 48.0596 10.65C48.1796 10.65 48.2746 10.6883 48.3446 10.765C48.4112 10.8483 48.4446 10.95 48.4446 11.07C48.4446 11.34 48.3129 11.7183 48.0496 12.205C47.8629 12.5417 47.6312 12.8933 47.3546 13.26C47.6479 13.2333 47.8729 13.22 48.0296 13.22ZM49.4946 14.13C49.4946 14.1833 49.4579 14.2583 49.3846 14.355C49.3112 14.455 49.2429 14.5217 49.1796 14.555C49.1162 14.5917 49.0379 14.61 48.9446 14.61C48.8512 14.61 48.7412 14.5583 48.6146 14.455C48.4879 14.355 48.3929 14.2367 48.3296 14.1C48.2696 13.9667 48.2396 13.775 48.2396 13.525C48.2396 13.2717 48.2646 12.9333 48.3146 12.51C48.3646 12.0833 48.3929 11.82 48.3996 11.72C48.4062 11.6167 48.4196 11.565 48.4396 11.565C48.4696 11.565 48.4862 11.6 48.4896 11.67V12.465C48.4896 13.345 48.5612 13.945 48.7046 14.265C48.7912 14.4617 48.8912 14.56 49.0046 14.56C49.1546 14.56 49.3179 14.4167 49.4946 14.13ZM47.0446 13.39C46.9679 13.4067 46.8779 13.43 46.7746 13.46C46.4846 13.8333 46.1929 14.1367 45.8996 14.37C45.9296 14.41 45.9746 14.4483 46.0346 14.485C46.3412 14.2417 46.6779 13.8767 47.0446 13.39ZM46.6446 13.5C46.1046 13.7133 45.8346 13.94 45.8346 14.18C45.8346 14.22 45.8429 14.2617 45.8596 14.305C46.1129 14.1017 46.3746 13.8333 46.6446 13.5ZM49.0147 14.03L49.2947 12.765C49.2814 12.7183 49.2447 12.6283 49.1847 12.495C49.1847 12.4717 49.213 12.45 49.2697 12.43C49.4364 12.3667 49.543 12.335 49.5897 12.335C49.6397 12.335 49.6647 12.35 49.6647 12.38C49.5414 12.6867 49.4564 12.9 49.4097 13.02C49.4097 13.03 49.4097 13.04 49.4097 13.05C49.4097 13.1533 49.3947 13.205 49.3647 13.205C49.358 13.205 49.353 13.2 49.3497 13.19C49.2797 13.4 49.2314 13.5533 49.2047 13.65C49.358 13.4 49.5147 13.1817 49.6747 12.995C49.9247 12.705 50.1314 12.56 50.2947 12.56C50.3714 12.56 50.4097 12.59 50.4097 12.65C50.4097 12.6733 50.313 13.04 50.1197 13.75C50.313 13.6067 50.463 13.4533 50.5697 13.29C50.5864 13.27 50.598 13.26 50.6047 13.26C50.6147 13.26 50.6197 13.265 50.6197 13.275C50.6197 13.285 50.6147 13.2983 50.6047 13.315C50.458 13.575 50.2797 13.7817 50.0697 13.935C50.053 13.955 50.0314 13.965 50.0047 13.965C49.9814 13.965 49.9697 13.95 49.9697 13.92C49.9697 13.89 49.9897 13.7767 50.0297 13.58C50.0697 13.3833 50.098 13.2333 50.1147 13.13C50.1347 13.0267 50.148 12.8967 50.1547 12.74C50.018 12.8067 49.8497 12.95 49.6497 13.17C49.4497 13.39 49.3164 13.5617 49.2497 13.685C49.1864 13.8083 49.1447 13.91 49.1247 13.99C49.108 14.0667 49.0847 14.105 49.0547 14.105C49.028 14.105 49.0147 14.0833 49.0147 14.04V14.03ZM49.3697 12.465C49.353 12.4783 49.3214 12.495 49.2747 12.515L49.3247 12.63L49.3697 12.465ZM52.1451 12.12C52.1851 12.13 52.2051 12.1633 52.2051 12.22C52.2051 12.2733 52.1618 12.37 52.0751 12.51C51.9918 12.65 51.9268 12.7367 51.8801 12.77C51.8168 12.9 51.7601 13.0633 51.7101 13.26C51.6635 13.4533 51.6401 13.625 51.6401 13.775C51.6401 13.925 51.6835 14 51.7701 14C51.8735 14 51.9951 13.91 52.1351 13.73C52.1818 13.6767 52.2718 13.5417 52.4051 13.325C52.4185 13.305 52.4301 13.295 52.4401 13.295C52.4501 13.295 52.4551 13.3 52.4551 13.31L52.4451 13.34C52.1885 13.8367 51.9485 14.085 51.7251 14.085C51.5318 14.085 51.4351 13.945 51.4351 13.665C51.4351 13.5283 51.4651 13.325 51.5251 13.055C51.3985 13.2983 51.2868 13.49 51.1901 13.63C51.0101 13.8767 50.8435 14 50.6901 14C50.5368 14 50.4601 13.8967 50.4601 13.69C50.4601 13.3733 50.6285 13.0367 50.9651 12.68C51.3018 12.3233 51.6318 12.1267 51.9551 12.09C52.1985 11.4933 52.4068 11.0267 52.5801 10.69C52.6368 10.6133 52.7268 10.575 52.8501 10.575C52.8968 10.575 52.9201 10.5867 52.9201 10.61C52.6601 11.1 52.4018 11.6033 52.1451 12.12ZM50.5851 13.595C50.5851 13.7417 50.6301 13.815 50.7201 13.815C50.9635 13.815 51.2018 13.5433 51.4351 13C51.3685 13.02 51.3218 13.03 51.2951 13.03C51.2718 13.03 51.2601 13.0233 51.2601 13.01C51.2601 12.9933 51.2818 12.9783 51.3251 12.965C51.3718 12.9483 51.4285 12.9167 51.4951 12.87C51.5251 12.79 51.5485 12.7217 51.5651 12.665C51.5851 12.6083 51.6018 12.58 51.6151 12.58C51.6385 12.58 51.6501 12.595 51.6501 12.625C51.6501 12.655 51.6351 12.71 51.6051 12.79L51.6951 12.725L51.9051 12.205C51.6518 12.2617 51.3685 12.4467 51.0551 12.76C50.7418 13.0733 50.5851 13.3517 50.5851 13.595ZM53.7756 12.85C53.7756 12.9467 53.7456 13.0367 53.6856 13.12C53.6289 13.2033 53.5739 13.245 53.5206 13.245C53.5106 13.245 53.5056 13.2383 53.5056 13.225C53.5256 13.175 53.5489 13.1217 53.5756 13.065C53.6023 13.005 53.6156 12.9383 53.6156 12.865C53.6156 12.7883 53.5873 12.75 53.5306 12.75C53.4539 12.75 53.3323 12.8433 53.1656 13.03C53.0023 13.2133 52.8873 13.3633 52.8206 13.48L52.6056 14.055C52.5989 14.0617 52.5856 14.065 52.5656 14.065C52.5489 14.065 52.5223 14.0533 52.4856 14.03C52.4523 14.0067 52.4356 13.9867 52.4356 13.97C52.4423 13.9567 52.4506 13.935 52.4606 13.905C52.4739 13.875 52.4856 13.8517 52.4956 13.835C52.6256 13.5583 52.7139 13.335 52.7606 13.165C52.8106 12.9917 52.8356 12.8217 52.8356 12.655C52.8223 12.7083 52.7623 12.8267 52.6556 13.01C52.4956 13.2867 52.4056 13.425 52.3856 13.425C52.3656 13.425 52.3556 13.42 52.3556 13.41C52.3556 13.4033 52.4239 13.2883 52.5606 13.065C52.7006 12.8417 52.7956 12.6333 52.8456 12.44C52.8656 12.3533 52.8989 12.31 52.9456 12.31C52.9989 12.31 53.0256 12.3767 53.0256 12.51C53.0256 12.75 52.9489 13.045 52.7956 13.395C52.9756 13.1717 53.1006 13.0217 53.1706 12.945C53.3606 12.7417 53.5089 12.64 53.6156 12.64C53.7223 12.64 53.7756 12.71 53.7756 12.85ZM55.4121 13.37C55.4321 13.3433 55.4471 13.33 55.4571 13.33C55.4671 13.33 55.4721 13.3383 55.4721 13.355C55.4721 13.3683 55.4654 13.3833 55.4521 13.4C55.1521 13.8467 54.9204 14.07 54.7571 14.07C54.6671 14.07 54.5987 14.0283 54.5521 13.945C54.5087 13.8583 54.4871 13.7633 54.4871 13.66C54.4871 13.5533 54.5037 13.4317 54.5371 13.295C54.3271 13.7617 54.1104 13.995 53.8871 13.995C53.7504 13.995 53.6821 13.9067 53.6821 13.73C53.6821 13.4467 53.8187 13.1517 54.0921 12.845C54.3687 12.5383 54.6437 12.385 54.9171 12.385C55.0471 12.385 55.1121 12.4417 55.1121 12.555C55.1121 12.695 55.0187 12.835 54.8321 12.975C54.7354 13.215 54.6871 13.4467 54.6871 13.67C54.6871 13.89 54.7287 14 54.8121 14C54.9221 14 55.1221 13.79 55.4121 13.37ZM54.8821 12.805C54.9354 12.7317 54.9621 12.6583 54.9621 12.585C54.9621 12.5117 54.9271 12.475 54.8571 12.475C54.6904 12.475 54.4721 12.64 54.2021 12.97C53.9321 13.2967 53.7971 13.5483 53.7971 13.725C53.7971 13.8017 53.8337 13.84 53.9071 13.84C54.1171 13.84 54.3204 13.6067 54.5171 13.14C54.4571 13.1567 54.4171 13.165 54.3971 13.165C54.3771 13.165 54.3671 13.16 54.3671 13.15C54.3671 13.1333 54.3904 13.1167 54.4371 13.1L54.5921 13.01C54.5987 12.9533 54.6337 12.88 54.6971 12.79C54.7604 12.6967 54.8204 12.65 54.8771 12.65C54.8971 12.65 54.9071 12.6633 54.9071 12.69C54.9071 12.7167 54.8987 12.755 54.8821 12.805ZM57.0426 12.12C57.0826 12.13 57.1026 12.1633 57.1026 12.22C57.1026 12.2733 57.0592 12.37 56.9726 12.51C56.8892 12.65 56.8242 12.7367 56.7776 12.77C56.7142 12.9 56.6576 13.0633 56.6076 13.26C56.5609 13.4533 56.5376 13.625 56.5376 13.775C56.5376 13.925 56.5809 14 56.6676 14C56.7709 14 56.8926 13.91 57.0326 13.73C57.0792 13.6767 57.1692 13.5417 57.3026 13.325C57.3159 13.305 57.3276 13.295 57.3376 13.295C57.3476 13.295 57.3526 13.3 57.3526 13.31L57.3426 13.34C57.0859 13.8367 56.8459 14.085 56.6226 14.085C56.4292 14.085 56.3326 13.945 56.3326 13.665C56.3326 13.5283 56.3626 13.325 56.4226 13.055C56.2959 13.2983 56.1842 13.49 56.0876 13.63C55.9076 13.8767 55.7409 14 55.5876 14C55.4342 14 55.3576 13.8967 55.3576 13.69C55.3576 13.3733 55.5259 13.0367 55.8626 12.68C56.1992 12.3233 56.5292 12.1267 56.8526 12.09C57.0959 11.4933 57.3042 11.0267 57.4776 10.69C57.5342 10.6133 57.6242 10.575 57.7476 10.575C57.7942 10.575 57.8176 10.5867 57.8176 10.61C57.5576 11.1 57.2992 11.6033 57.0426 12.12ZM55.4826 13.595C55.4826 13.7417 55.5276 13.815 55.6176 13.815C55.8609 13.815 56.0992 13.5433 56.3326 13C56.2659 13.02 56.2192 13.03 56.1926 13.03C56.1692 13.03 56.1576 13.0233 56.1576 13.01C56.1576 12.9933 56.1792 12.9783 56.2226 12.965C56.2692 12.9483 56.3259 12.9167 56.3926 12.87C56.4226 12.79 56.4459 12.7217 56.4626 12.665C56.4826 12.6083 56.4992 12.58 56.5126 12.58C56.5359 12.58 56.5476 12.595 56.5476 12.625C56.5476 12.655 56.5326 12.71 56.5026 12.79L56.5926 12.725L56.8026 12.205C56.5492 12.2617 56.2659 12.4467 55.9526 12.76C55.6392 13.0733 55.4826 13.3517 55.4826 13.595ZM58.798 13.32C58.8014 13.32 58.803 13.325 58.803 13.335C58.803 13.345 58.7897 13.3733 58.763 13.42C58.6597 13.5867 58.5097 13.7417 58.313 13.885C58.1164 14.025 57.9314 14.095 57.758 14.095C57.5214 14.095 57.403 13.9417 57.403 13.635C57.403 13.5317 57.4147 13.4217 57.438 13.305C57.408 13.2783 57.3814 13.2417 57.358 13.195C57.3614 13.1983 57.3697 13.2033 57.383 13.21C57.3964 13.2133 57.408 13.2183 57.418 13.225C57.4314 13.2283 57.4447 13.2317 57.458 13.235C57.4914 13.0717 57.593 12.9033 57.763 12.73C57.933 12.5567 58.098 12.47 58.258 12.47C58.2947 12.47 58.313 12.475 58.313 12.485C58.313 12.4917 58.2897 12.5083 58.243 12.535C58.1197 12.6017 58.0047 12.705 57.898 12.845C57.7847 12.985 57.703 13.125 57.653 13.265L57.663 13.275C57.823 13.275 57.9897 13.1983 58.163 13.045C58.3364 12.8917 58.423 12.735 58.423 12.575C58.423 12.5283 58.4097 12.485 58.383 12.445C58.3597 12.4017 58.3197 12.38 58.263 12.38C58.2064 12.38 58.1347 12.4067 58.048 12.46C57.9647 12.51 57.918 12.535 57.908 12.535C57.9014 12.535 57.898 12.5333 57.898 12.53C57.898 12.49 57.9514 12.4483 58.058 12.405C58.168 12.3617 58.2564 12.34 58.323 12.34C58.393 12.34 58.453 12.3617 58.503 12.405C58.553 12.4483 58.578 12.5083 58.578 12.585C58.578 12.7617 58.468 12.9283 58.248 13.085C58.0314 13.2417 57.8264 13.3283 57.633 13.345C57.6064 13.425 57.593 13.5017 57.593 13.575C57.593 13.8517 57.693 13.99 57.893 13.99C58.0464 13.99 58.1997 13.93 58.353 13.81C58.5064 13.6867 58.6297 13.5467 58.723 13.39C58.753 13.3433 58.778 13.32 58.798 13.32Z" fill="#BEBEBE"/>
</svg>
