<svg width="200" height="51" viewBox="0 0 200 51" fill="none" xmlns="http://www.w3.org/2000/svg">
<path d="M1.30156 39.5825V20.0766H29.0922V18.9356H1.30156V1.14062H30.8492V0H0V40.7231H31.1094V39.5825H1.30195H1.30156ZM56.1668 11.4069L44.6473 24.6962L33.3875 11.4072H31.6953L43.866 25.552L30.5234 40.7228H32.0855L44.6465 26.4068L57.2727 40.7228H58.8996L45.4926 25.5514L57.7281 11.4066H56.1664L56.1668 11.4069ZM62.8051 50.7614V32.5104H62.9352C63.7164 35.172 65.2566 37.3108 67.5563 38.927C69.8559 40.5427 72.7844 41.3509 76.3422 41.3509C78.6418 41.3509 80.6813 40.9422 82.4602 40.1247C84.2391 39.3073 85.725 38.1951 86.9184 36.7881C88.1113 35.3812 89.0227 33.7462 89.652 31.883C90.2809 30.02 90.5957 28.0616 90.5957 26.0087C90.5957 23.8031 90.2699 21.7687 89.6191 19.9058C88.9684 18.0425 88.0246 16.4264 86.7883 15.0578C85.5516 13.6888 84.0547 12.6239 82.2973 11.8639C80.5402 11.1033 78.5551 10.7229 76.3422 10.7229C74.65 10.7229 73.0773 10.9417 71.6238 11.3788C70.1703 11.8163 68.8797 12.4339 67.7516 13.2325C66.6168 14.0373 65.6291 14.9893 64.8227 16.0557C63.9984 17.1394 63.3691 18.3277 62.9352 19.6206H62.8051V11.4069H61.5035V50.7614H62.8051ZM76.3422 40.2668C72.2641 40.2668 68.9879 39.0406 66.5148 36.5882C64.0418 34.1358 62.8051 30.6088 62.8051 26.008C62.8051 24.1068 63.109 22.3007 63.7164 20.5897C64.3238 18.8788 65.2023 17.3767 66.352 16.0841C67.502 14.7911 68.923 13.7645 70.6148 13.0042C72.307 12.2435 74.2164 11.8632 76.3422 11.8632C78.5117 11.8632 80.4102 12.2435 82.0371 13.0042C83.6641 13.7645 85.0094 14.8007 86.0723 16.1125C87.1352 17.4243 87.9379 18.9264 88.4805 20.6181C89.0227 22.3102 89.2937 24.1068 89.2937 26.008C89.2937 27.7193 89.0445 29.421 88.5453 31.1127C88.0465 32.8048 87.2762 34.3258 86.2348 35.6759C85.1937 37.0254 83.8598 38.128 82.2324 38.9838C80.6051 39.8392 78.6418 40.2668 76.3422 40.2668ZM97.7547 40.7231V24.1259C97.7547 22.529 98.0148 20.9697 98.5359 19.4491C99.0563 17.9282 99.859 16.5876 100.944 15.4282C102.029 14.2684 103.406 13.3557 105.077 12.6903C106.747 12.0248 108.732 11.7492 111.032 11.8632V10.7226C109.036 10.6849 107.289 10.8746 105.793 11.2929C104.295 11.7112 103.005 12.2815 101.92 13.0042C100.835 13.7265 99.9676 14.5724 99.3168 15.5422C98.6665 16.5104 98.1839 17.558 97.8848 18.6505H97.7547V11.4069H96.4531V40.7235H97.7547V40.7231ZM112.659 26.2932H140.644C140.731 24.2779 140.504 22.339 139.961 20.4757C139.419 18.6125 138.551 16.9584 137.358 15.5138C136.164 14.0688 134.624 12.909 132.737 12.0344C130.849 11.1597 128.604 10.7226 126.001 10.7226C124.135 10.7226 122.312 11.0649 120.534 11.7496C118.755 12.4339 117.193 13.4317 115.848 14.7435C114.503 16.0553 113.418 17.6618 112.594 19.5634C111.77 21.4644 111.357 23.6316 111.357 26.0652C111.357 28.2324 111.639 30.2573 112.203 32.1394C112.767 34.0215 113.635 35.6567 114.806 37.0445C115.978 38.4323 117.486 39.5065 119.33 40.2668C121.173 41.0275 123.397 41.3886 126.001 41.3506C129.819 41.3506 133.03 40.4092 135.633 38.5275C138.236 36.645 139.777 33.9931 140.254 30.5708H138.952C138.388 33.8031 136.945 36.2271 134.624 37.8428C132.303 39.4589 129.385 40.2668 125.87 40.2668C123.484 40.2668 121.466 39.9057 119.818 39.1834C118.169 38.4611 116.824 37.4721 115.782 36.2175C114.741 34.9625 113.971 33.4892 113.472 31.797C112.973 30.1053 112.702 28.2704 112.659 26.2932ZM139.343 25.1525H112.659C112.789 23.0993 113.223 21.2552 113.96 19.6203C114.698 17.985 115.663 16.5876 116.857 15.4282C118.05 14.2684 119.438 13.3845 121.022 12.7759C122.605 12.1675 124.309 11.8632 126.131 11.8632C128.3 11.8632 130.209 12.2151 131.858 12.9186C133.507 13.6221 134.884 14.5823 135.991 15.7989C137.097 17.0155 137.932 18.4321 138.496 20.0478C139.061 21.6639 139.343 23.3656 139.343 25.1525ZM167.654 20.0766H168.955C168.955 16.8064 167.871 14.43 165.702 12.947C163.532 11.4641 160.581 10.7226 156.85 10.7226C154.767 10.7226 153.01 10.9509 151.578 11.4072C150.146 11.8632 148.975 12.4527 148.064 13.175C147.153 13.8973 146.502 14.6959 146.111 15.5706C145.721 16.4452 145.525 17.2819 145.525 18.0802C145.525 19.6771 145.851 20.9509 146.502 21.9015C147.153 22.8521 148.172 23.5936 149.561 24.1259C150.515 24.5059 151.6 24.8482 152.815 25.1529C154.03 25.4569 155.44 25.78 157.045 26.122C158.477 26.4267 159.887 26.7307 161.276 27.0346C162.664 27.339 163.89 27.7477 164.953 28.2608C166.016 28.7743 166.884 29.4302 167.556 30.2289C168.229 31.0272 168.565 32.073 168.565 33.3656C168.565 34.6205 168.229 35.6852 167.556 36.5594C166.889 37.4295 166.012 38.1599 164.986 38.6986C163.944 39.2498 162.783 39.6489 161.504 39.8961C160.223 40.1432 158.976 40.2668 157.761 40.2668C153.813 40.2668 150.786 39.4969 148.682 37.9572C146.578 36.417 145.526 33.9931 145.526 30.6848H144.224C144.224 34.3734 145.363 37.0729 147.641 38.7842C149.919 40.4951 153.292 41.3506 157.761 41.3506C159.193 41.3506 160.636 41.2079 162.089 40.9227C163.543 40.6375 164.845 40.172 165.994 39.5253C167.134 38.8879 168.091 38.0294 168.793 37.0161C169.509 35.9891 169.867 34.7345 169.867 33.2516C169.867 31.8446 169.552 30.704 168.923 29.8294C168.294 28.9551 167.47 28.2324 166.45 27.6621C165.43 27.0918 164.28 26.6451 163 26.3219C161.713 25.9969 160.422 25.6831 159.128 25.3805C157.535 25.0143 155.94 24.6531 154.344 24.2971C152.978 23.9928 151.709 23.6316 150.537 23.2133C149.409 22.795 148.509 22.1962 147.836 21.4168C147.163 20.6373 146.827 19.5251 146.827 18.0802C146.827 17.8142 146.914 17.3387 147.088 16.6544C147.261 15.9697 147.673 15.2758 148.324 14.5724C148.975 13.8692 149.973 13.2418 151.318 12.6903C152.663 12.1391 154.507 11.8632 156.85 11.8632C158.455 11.8632 159.92 12.0155 161.243 12.3195C162.566 12.6239 163.705 13.1086 164.66 13.7741C165.614 14.4395 166.352 15.2854 166.873 16.3121C167.393 17.339 167.654 18.5936 167.654 20.0766ZM197.787 20.0766H199.089C199.089 16.8064 198.004 14.43 195.835 12.947C193.665 11.4641 190.715 10.7226 186.983 10.7226C184.901 10.7226 183.143 10.9509 181.712 11.4072C180.28 11.8632 179.108 12.4527 178.197 13.175C177.286 13.8973 176.635 14.6959 176.245 15.5706C175.854 16.4452 175.659 17.2819 175.659 18.0802C175.659 19.6771 175.984 20.9509 176.636 21.9015C177.286 22.8521 178.306 23.5936 179.694 24.1259C180.649 24.5059 181.733 24.8482 182.948 25.1529C184.163 25.4569 185.573 25.78 187.179 26.122C188.611 26.4267 190.021 26.7307 191.409 27.0346C192.798 27.339 194.023 27.7477 195.086 28.2608C196.149 28.7743 197.017 29.4302 197.689 30.2289C198.362 31.0272 198.698 32.073 198.698 33.3656C198.698 34.6205 198.362 35.6852 197.689 36.5594C197.023 37.4295 196.145 38.1599 195.119 38.6986C194.077 39.2498 192.917 39.6489 191.637 39.8961C190.357 40.1432 189.109 40.2668 187.895 40.2668C183.946 40.2668 180.92 39.4969 178.816 37.9572C176.711 36.417 175.659 33.9931 175.659 30.6848H174.357C174.357 34.3734 175.496 37.0729 177.774 38.7842C180.052 40.4951 183.425 41.3506 187.895 41.3506C189.327 41.3506 190.769 41.2079 192.223 40.9227C193.676 40.6375 194.978 40.172 196.128 39.5253C197.268 38.8879 198.225 38.0294 198.926 37.0161C199.642 35.9891 200 34.7345 200 33.2516C200 31.8446 199.686 30.704 199.056 29.8294C198.427 28.9551 197.603 28.2324 196.583 27.6621C195.564 27.0918 194.414 26.6451 193.134 26.3219C191.847 25.9969 190.556 25.6831 189.261 25.3805C187.668 25.0143 186.074 24.6531 184.478 24.2971C183.111 23.9928 181.842 23.6316 180.67 23.2133C179.542 22.795 178.642 22.1962 177.97 21.4168C177.297 20.6373 176.961 19.5251 176.961 18.0802C176.961 17.8142 177.047 17.3387 177.221 16.6544C177.395 15.9697 177.807 15.2758 178.457 14.5724C179.108 13.8692 180.106 13.2418 181.451 12.6903C182.796 12.1391 184.64 11.8632 186.984 11.8632C188.589 11.8632 190.053 12.0155 191.377 12.3195C192.7 12.6239 193.839 13.1086 194.793 13.7741C195.748 14.4395 196.486 15.2854 197.006 16.3121C197.527 17.339 197.788 18.5936 197.788 20.0766H197.787Z" fill="#222222"/>
</svg>
