<svg width="119" height="50" viewBox="0 0 119 50" fill="none" xmlns="http://www.w3.org/2000/svg">
<path d="M70.8046 16.7964C68.2142 16.7964 66.2851 18.0683 66.2851 21.1294C66.2851 23.4356 67.5565 25.037 70.6649 25.037C73.2997 25.037 75.0895 23.4842 75.0895 21.0336C75.0895 18.2566 73.4881 16.7964 70.8046 16.7964V16.7964ZM65.6256 38.4108C65.0124 39.1629 64.4014 39.9627 64.4014 40.9055C64.4014 42.7878 66.8016 43.3543 70.0988 43.3543C72.8295 43.3543 76.5497 43.1627 76.5497 40.6236C76.5497 39.1143 74.76 39.0213 72.4986 38.8797L65.6256 38.4108V38.4108ZM79.5627 16.9385C80.4088 18.0215 81.3048 19.5289 81.3048 21.6945C81.3048 26.9207 77.2083 29.9809 71.2767 29.9809C69.7684 29.9809 68.403 29.793 67.5565 29.5579L66.0019 32.0525L70.6158 32.3349C78.7625 32.8542 83.5634 33.0902 83.5634 39.3499C83.5634 44.7659 78.8092 47.8247 70.6158 47.8247C62.0938 47.8247 58.8447 45.6587 58.8447 41.9394C58.8447 39.8206 59.7866 38.6927 61.4347 37.1362C59.8805 36.4795 59.3631 35.303 59.3631 34.0307C59.3631 32.9939 59.8805 32.053 60.7294 31.1574C61.5763 30.2642 62.5177 29.3686 63.6479 28.3328C61.3412 27.2026 59.5982 24.7542 59.5982 21.2692C59.5982 15.8555 63.1772 12.1371 70.3798 12.1371C72.4051 12.1371 73.6297 12.3232 74.7127 12.6078H83.8952V16.6085L79.5627 16.9385V16.9385ZM92.1789 8.38224C89.4945 8.38224 87.9408 6.82714 87.9408 4.14229C87.9408 1.46114 89.494 0 92.1789 0C94.9096 0 96.4637 1.46114 96.4637 4.14229C96.4637 6.82714 94.91 8.38224 92.1789 8.38224ZM86.1038 36.678V32.9601L88.5059 32.6315C89.1654 32.5367 89.2589 32.396 89.2589 31.6883V17.8452C89.2589 17.3287 89.1182 16.9973 88.6457 16.8575L86.1038 15.9619L86.6213 12.1492H96.3689V31.6883C96.3689 32.4427 96.4142 32.5367 97.1228 32.632L99.524 32.9606V36.678H86.1038V36.678ZM118.144 34.8526C116.119 35.8408 113.152 36.7354 110.468 36.7354C104.865 36.7354 102.747 34.4777 102.747 29.1543V16.8196C102.747 16.5372 102.747 16.3489 102.368 16.3489H99.0732V12.157C103.218 11.685 104.865 9.61335 105.382 4.48108H109.856V11.1689C109.856 11.4975 109.856 11.6396 110.233 11.6396H116.872V16.3479H109.856V27.6006C109.856 30.3785 110.516 31.4606 113.057 31.4606C114.377 31.4606 115.741 31.132 116.871 30.708L118.144 34.8522" fill="#2F2707"/>
<path d="M48.3784 22.4968L26.8496 0.969341C26.5547 0.674412 26.2047 0.440457 25.8194 0.280838C25.4341 0.121218 25.0212 0.0390625 24.6042 0.0390625C24.1871 0.0390625 23.7742 0.121218 23.3889 0.280838C23.0036 0.440457 22.6536 0.674412 22.3588 0.969341L17.8883 5.44024L23.5593 11.1108C24.2259 10.8841 24.9427 10.8486 25.6284 11.0084C26.3141 11.1681 26.9414 11.5167 27.4392 12.0147C27.9396 12.5158 28.289 13.1476 28.4475 13.8378C28.6059 14.5281 28.567 15.249 28.3352 15.9182L33.7998 21.3837C35.1221 20.9283 36.648 21.2231 37.7037 22.2806C38.0547 22.6314 38.3332 23.0479 38.5231 23.5063C38.7131 23.9647 38.8109 24.4561 38.8109 24.9523C38.8109 25.4485 38.7131 25.9399 38.5231 26.3983C38.3332 26.8567 38.0547 27.2732 37.7037 27.624C37.0862 28.2421 36.2736 28.6271 35.4042 28.7134C34.5347 28.7998 33.6622 28.5822 32.9352 28.0976C32.2081 27.6131 31.6715 26.8915 31.4166 26.0558C31.1617 25.2201 31.2042 24.3219 31.5371 23.5141L26.4404 18.4174L26.44 31.8301C26.8094 32.0128 27.1469 32.2542 27.4392 32.5447C27.7902 32.8956 28.0686 33.3122 28.2585 33.7707C28.4484 34.2292 28.5462 34.7206 28.5462 35.2169C28.5462 35.7131 28.4484 36.2046 28.2585 36.663C28.0686 37.1215 27.7902 37.5381 27.4392 37.889C25.9628 39.3654 23.57 39.3654 22.0959 37.889C21.6555 37.4489 21.3307 36.9069 21.1503 36.311C20.9699 35.7151 20.9395 35.0839 21.0619 34.4735C21.1843 33.863 21.4556 33.2923 21.8517 32.812C22.2479 32.3317 22.7566 31.9567 23.3325 31.7204V18.1828C22.8692 17.9936 22.4486 17.7131 22.0959 17.358C20.9777 16.2412 20.7088 14.6005 21.2818 13.2273L15.6918 7.63635L0.930396 22.3968C0.635425 22.6918 0.401441 23.0419 0.241803 23.4273C0.0821648 23.8127 0 24.2258 0 24.6429C0 25.06 0.0821648 25.4731 0.241803 25.8585C0.401441 26.2439 0.635425 26.594 0.930396 26.889L22.4592 48.4169C23.0548 49.0123 23.8624 49.3468 24.7046 49.3468C25.5467 49.3468 26.3544 49.0123 26.95 48.4169L48.3784 26.9894C48.9739 26.3935 49.3084 25.5856 49.3084 24.7431C49.3084 23.9007 48.9739 23.0927 48.3784 22.4968" fill="#DE4C36"/>
</svg>
