<svg width="177" height="50" viewBox="0 0 177 50" fill="none" xmlns="http://www.w3.org/2000/svg">
<g clip-path="url(#clip0_111_11)">
<path d="M162.431 17.7969C162.002 17.7969 161.585 17.8855 161.215 18.0945L149.53 24.8427C148.774 25.2786 148.314 26.1014 148.314 26.9769V40.4489C148.314 41.3238 148.774 42.1455 149.53 42.5824L152.582 44.3441C154.064 45.0748 154.611 45.0634 155.286 45.0634C157.481 45.0634 158.734 43.7313 158.734 41.4165V28.1179C158.734 27.93 158.572 27.7955 158.387 27.7955H156.923C156.736 27.7955 156.576 27.93 156.576 28.1179V41.4165C156.576 42.4424 155.507 43.4744 153.773 42.6072L150.597 40.7465C150.484 40.6855 150.398 40.5775 150.398 40.4489V26.9765C150.398 26.8489 150.483 26.7189 150.597 26.6541L162.258 19.931C162.31 19.9002 162.37 19.884 162.431 19.884C162.492 19.884 162.552 19.9002 162.605 19.931L174.266 26.6545C174.377 26.7213 174.464 26.8451 174.464 26.9772V40.4493C174.464 40.5779 174.4 40.7096 174.291 40.7717L162.605 47.4951C162.505 47.5548 162.367 47.5548 162.258 47.4951L159.255 45.7089C159.21 45.6841 159.159 45.6712 159.107 45.6712C159.055 45.6712 159.004 45.6841 158.958 45.7089C158.129 46.1786 157.973 46.2331 157.196 46.5027C157.005 46.5696 156.714 46.6734 157.295 46.9993L161.215 49.3062C161.585 49.5194 162.005 49.6308 162.431 49.6289C162.858 49.6316 163.278 49.5203 163.647 49.3065L175.333 42.5827C176.089 42.1431 176.548 41.3241 176.548 40.4493V26.9769C176.548 26.1017 176.089 25.2803 175.333 24.8434L163.647 18.0952C163.281 17.8858 162.861 17.7972 162.431 17.7972L162.431 17.7969Z" fill="#83CD29"/>
<path d="M165.557 27.4233C162.23 27.4233 160.248 28.8395 160.248 31.1947C160.248 33.7492 162.215 34.4513 165.408 34.7671C169.229 35.1413 169.527 35.7023 169.527 36.4544C169.527 37.7589 168.487 38.3151 166.029 38.3151C162.94 38.3151 162.262 37.5441 162.034 36.0078C162.007 35.843 161.88 35.7099 161.712 35.7099H160.198C160.012 35.7099 159.851 35.8706 159.851 36.0575C159.851 38.0241 160.921 40.3496 166.029 40.3496C169.726 40.3496 171.859 38.8982 171.859 36.3551C171.859 33.8344 170.136 33.1575 166.549 32.6834C162.925 32.2037 162.58 31.9689 162.58 31.1202C162.58 30.4196 162.873 29.4823 165.557 29.4823C167.955 29.4823 168.841 29.9996 169.204 31.6165C169.236 31.7682 169.37 31.8892 169.527 31.8892H171.04C171.134 31.8892 171.224 31.832 171.288 31.7651C171.352 31.6937 171.397 31.6133 171.388 31.5171C171.153 28.733 169.297 27.4233 165.557 27.4233V27.4233Z" fill="#83CD29"/>
<path d="M93.7313 0.131996C93.6006 0.132083 93.4723 0.166191 93.3588 0.230962C93.2461 0.296917 93.1525 0.3911 93.0873 0.504232C93.022 0.617363 92.9874 0.74554 92.9868 0.876134V19.8561C92.9868 20.0424 92.9002 20.2092 92.7388 20.3027C92.6598 20.3488 92.5699 20.373 92.4783 20.373C92.3868 20.373 92.2969 20.3488 92.2178 20.3027L89.1164 18.5165C88.8902 18.3856 88.6335 18.3167 88.3721 18.3167C88.1108 18.3167 87.854 18.3856 87.6278 18.5165L75.2475 25.6617C74.7847 25.9289 74.5033 26.4424 74.5033 26.9768V41.2675C74.5033 41.8013 74.7851 42.2903 75.2475 42.5575L87.6278 49.7031C87.8539 49.8343 88.1107 49.9034 88.3721 49.9034C88.6336 49.9034 88.8903 49.8343 89.1164 49.7031L101.497 42.5575C101.723 42.4271 101.912 42.2391 102.042 42.0126C102.173 41.7861 102.242 41.5291 102.241 41.2675V5.63993C102.241 5.37228 102.17 5.10951 102.034 4.87845C101.899 4.64739 101.705 4.45633 101.472 4.32476L94.1033 0.206134C93.9878 0.141651 93.8595 0.130272 93.7313 0.131996V0.131996ZM14.0899 17.9706C13.854 17.9799 13.632 18.0213 13.4202 18.1441L1.03955 25.2896C0.812765 25.4199 0.624474 25.6078 0.493785 25.8344C0.363095 26.061 0.294658 26.3181 0.295416 26.5796L0.320244 45.7586C0.320244 46.0251 0.45783 46.2731 0.692313 46.4034C0.804729 46.471 0.933406 46.5066 1.06455 46.5066C1.1957 46.5066 1.32438 46.471 1.4368 46.4034L8.78059 42.1858C9.24576 41.9093 9.54955 41.4286 9.54955 40.8955V31.9389C9.54955 31.4044 9.83059 30.9141 10.294 30.6486L13.4199 28.8375C13.6459 28.7061 13.9029 28.6375 14.1644 28.6389C14.4196 28.6389 14.6816 28.7027 14.9085 28.8375L18.0347 30.6486C18.2617 30.7787 18.4502 30.9667 18.581 31.1933C18.7117 31.42 18.7801 31.6772 18.7792 31.9389V40.8951C18.7792 41.4282 19.0861 41.9124 19.5482 42.1855L26.892 46.4034C27.0044 46.471 27.1331 46.5066 27.2642 46.5066C27.3954 46.5066 27.524 46.471 27.6364 46.4034C27.7496 46.3379 27.8436 46.2438 27.9089 46.1306C27.9743 46.0174 28.0087 45.889 28.0089 45.7582L28.033 26.5796C28.0345 26.3179 27.9663 26.0605 27.8356 25.8339C27.7048 25.6072 27.5161 25.4193 27.2889 25.2896L14.9085 18.1441C14.6992 18.0213 14.4764 17.9803 14.2389 17.9706H14.0899ZM125.34 18.1441C125.081 18.1441 124.827 18.2096 124.595 18.3427L112.215 25.4882C111.988 25.6186 111.8 25.8066 111.669 26.0331C111.539 26.2596 111.47 26.5167 111.471 26.7782V41.0689C111.471 41.6065 111.773 42.0934 112.24 42.3593L124.521 49.3558C124.974 49.6144 125.528 49.6341 125.985 49.38L133.428 45.2368C133.664 45.1058 133.824 44.861 133.825 44.592C133.826 44.4611 133.792 44.3321 133.727 44.2187C133.661 44.1052 133.567 44.0113 133.453 43.9468L120.998 36.8013C120.765 36.6682 120.601 36.3989 120.601 36.1313V31.6658C120.601 31.3986 120.766 31.1537 120.998 31.0206L124.868 28.7875C124.981 28.7221 125.11 28.6876 125.24 28.6876C125.371 28.6876 125.5 28.7221 125.613 28.7875L129.483 31.0206C129.596 31.0858 129.69 31.1797 129.756 31.293C129.821 31.4062 129.855 31.5347 129.855 31.6655V35.1886C129.855 35.3193 129.889 35.4478 129.954 35.5611C130.02 35.6743 130.114 35.7683 130.227 35.8334C130.459 35.9675 130.74 35.9679 130.971 35.8334L138.39 31.5172C138.616 31.3862 138.804 31.1981 138.935 30.9716C139.065 30.7452 139.134 30.4883 139.134 30.2268V26.7786C139.134 26.2458 138.852 25.7558 138.39 25.4882L126.084 18.3427C125.858 18.2118 125.601 18.1434 125.34 18.1444V18.1441ZM88.3223 28.8127C88.3871 28.8127 88.463 28.8286 88.5209 28.862L92.7637 31.3182C92.8789 31.3848 92.9623 31.5079 92.9623 31.6406V36.5531C92.9623 36.6865 92.8795 36.8093 92.7637 36.8758L88.5209 39.332C88.4643 39.3644 88.4001 39.3814 88.3349 39.3814C88.2696 39.3814 88.2055 39.3644 88.1489 39.332L83.9064 36.8758C83.7909 36.8089 83.7078 36.6865 83.7078 36.5531V31.6406C83.7078 31.5075 83.7913 31.3855 83.9064 31.3182L88.1489 28.8624C88.201 28.8299 88.2612 28.8128 88.3226 28.813V28.8127H88.3223Z" fill="#404137"/>
<path d="M51.2807 18.0698C51.0228 18.0698 50.7676 18.1353 50.5366 18.2684L38.1562 25.3891C37.6931 25.6557 37.4117 26.1702 37.4117 26.704V40.9947C37.4117 41.5292 37.6935 42.0174 38.1562 42.285L50.5366 49.4302C50.7626 49.5615 51.0194 49.6307 51.2809 49.6307C51.5423 49.6307 51.7991 49.5615 52.0252 49.4302L64.4055 42.285C64.6322 42.1545 64.8204 41.9664 64.951 41.7399C65.0817 41.5133 65.1502 41.2562 65.1497 40.9947V26.704C65.1497 26.1695 64.8683 25.6557 64.4055 25.3891L52.0252 18.2684C51.7989 18.1377 51.542 18.0692 51.2807 18.0698V18.0698ZM125.315 30.8226C125.266 30.8226 125.211 30.8226 125.166 30.8474L122.785 32.2367C122.74 32.2614 122.703 32.2973 122.677 32.3409C122.651 32.3845 122.636 32.4342 122.636 32.485V35.214C122.636 35.3167 122.695 35.4109 122.785 35.4623L125.166 36.8267C125.256 36.8785 125.351 36.8785 125.439 36.8267L127.821 35.4619C127.865 35.4371 127.902 35.4012 127.928 35.3577C127.954 35.3142 127.969 35.2647 127.97 35.214V32.4847C127.969 32.434 127.954 32.3844 127.928 32.3409C127.902 32.2975 127.865 32.2615 127.821 32.2367L125.439 30.8471C125.395 30.8212 125.365 30.8229 125.315 30.8229V30.8226Z" fill="#83CD29"/>
</g>
<defs>
<clipPath id="clip0_111_11">
<rect width="176.554" height="50" fill="white"/>
</clipPath>
</defs>
</svg>
