<svg width="34" height="50" viewBox="0 0 34 50" fill="none" xmlns="http://www.w3.org/2000/svg">
<g clip-path="url(#clip0_111_5)">
<path d="M8.33676 50.0001C12.9368 50.0001 16.6701 46.2668 16.6701 41.6668V33.3335H8.33676C3.73675 33.3335 0.00341797 37.0668 0.00341797 41.6668C0.00341797 46.2668 3.73675 50.0001 8.33676 50.0001Z" fill="#0ACF83"/>
<path d="M0.00341797 24.9998C0.00341797 20.3998 3.73675 16.6665 8.33676 16.6665H16.6701V33.3331H8.33676C3.73675 33.3331 0.00341797 29.5998 0.00341797 24.9998Z" fill="#A259FF"/>
<path d="M0.00341797 8.33333C0.00341797 3.73333 3.73675 0 8.33676 0H16.6701V16.6667H8.33676C3.73675 16.6667 0.00341797 12.9333 0.00341797 8.33333Z" fill="#F24E1E"/>
<path d="M16.6699 0H25.0033C29.6033 0 33.3366 3.73333 33.3366 8.33333C33.3366 12.9333 29.6033 16.6667 25.0033 16.6667H16.6699V0Z" fill="#FF7262"/>
<path d="M33.3366 24.9998C33.3366 29.5998 29.6033 33.3331 25.0033 33.3331C20.4033 33.3331 16.6699 29.5998 16.6699 24.9998C16.6699 20.3998 20.4033 16.6665 25.0033 16.6665C29.6033 16.6665 33.3366 20.3998 33.3366 24.9998Z" fill="#1ABCFE"/>
</g>
<defs>
<clipPath id="clip0_111_5">
<rect width="33.34" height="50" fill="white"/>
</clipPath>
</defs>
</svg>
